<?xml version="1.0" encoding="utf-8"?>
<!-- Generator: Adobe Illustrator 23.1.0, SVG Export Plug-In . SVG Version: 6.00 Build 0)  -->
<svg version="1.1" id="Layer_1" xmlns="http://www.w3.org/2000/svg" xmlns:xlink="http://www.w3.org/1999/xlink" x="0px" y="0px"
	 viewBox="0 0 16 16" style="enable-background:new 0 0 16 16;" xml:space="preserve">
<path id="Icon_awesome-facebook-square" d="M14.29,0H1.71C0.77,0,0,0.77,0,1.71v12.57C0,15.23,0.77,16,1.71,16l0,0h4.9v-5.44H4.37V8
	h2.25V6.05c0-2.22,1.32-3.45,3.35-3.45c0.66,0.01,1.33,0.07,1.98,0.17v2.18h-1.12c-0.7-0.09-1.34,0.4-1.44,1.1
	C9.38,6.15,9.38,6.24,9.38,6.34V8h2.46l-0.39,2.56H9.38V16h4.9c0.95,0,1.71-0.77,1.71-1.71l0,0V1.71C16,0.77,15.23,0,14.29,0z"/>
</svg>
