<?xml version="1.0" encoding="utf-8"?>
<!-- Generator: Adobe Illustrator 23.1.0, SVG Export Plug-In . SVG Version: 6.00 Build 0)  -->
<svg version="1.1" id="Layer_1" xmlns="http://www.w3.org/2000/svg" xmlns:xlink="http://www.w3.org/1999/xlink" x="0px" y="0px"
	 viewBox="0 0 16 16" style="enable-background:new 0 0 16 16;" xml:space="preserve">
<path id="Icon_awesome-instagram" d="M8,3.9C5.74,3.9,3.9,5.73,3.9,8s1.84,4.1,4.1,4.1s4.1-1.84,4.1-4.1c0-2.26-1.83-4.1-4.09-4.1
	C8.01,3.9,8.01,3.9,8,3.9z M8,10.66c-1.47,0-2.67-1.19-2.67-2.67c0-1.47,1.19-2.67,2.67-2.67c1.47,0,2.67,1.19,2.67,2.67v0
	C10.66,9.47,9.47,10.66,8,10.66z M13.23,3.73c0,0.53-0.43,0.96-0.96,0.96s-0.96-0.43-0.96-0.96c0-0.53,0.43-0.96,0.96-0.96
	C12.8,2.77,13.23,3.2,13.23,3.73C13.23,3.73,13.23,3.73,13.23,3.73z M15.94,4.7c0.03-1.24-0.44-2.45-1.29-3.35
	c-0.91-0.85-2.11-1.31-3.35-1.29c-1.32-0.08-5.28-0.08-6.6,0C3.46,0.03,2.25,0.5,1.35,1.35C0.5,2.25,0.03,3.45,0.06,4.7
	c-0.08,1.32-0.08,5.28,0,6.6c-0.03,1.24,0.44,2.45,1.29,3.35c0.91,0.85,2.11,1.31,3.35,1.29c1.32,0.08,5.28,0.08,6.6,0
	c1.24,0.03,2.45-0.44,3.35-1.29c0.85-0.91,1.31-2.11,1.29-3.35C16.02,9.98,16.02,6.02,15.94,4.7L15.94,4.7z M14.24,12.71
	c-0.27,0.7-0.83,1.25-1.52,1.52c-1.05,0.42-3.55,0.32-4.72,0.32s-3.67,0.09-4.72-0.32c-0.7-0.27-1.25-0.83-1.52-1.52
	C1.34,11.66,1.44,9.16,1.44,8S1.35,4.33,1.76,3.28c0.27-0.7,0.83-1.25,1.52-1.52C4.34,1.34,6.84,1.44,8,1.44s3.67-0.09,4.72,0.32
	c0.7,0.27,1.25,0.83,1.52,1.52c0.42,1.05,0.32,3.55,0.32,4.72S14.66,11.66,14.24,12.71z"/>
</svg>
